<svg xmlns="http://www.w3.org/2000/svg" xmlns:xlink="http://www.w3.org/1999/xlink" width="1920" zoomAndPan="magnify" viewBox="0 0 1440 225" height="300" preserveAspectRatio="xMidYMid meet" version="1.0"><defs><filter x="0%" y="0%" width="100%" height="100%" id="975e89903d"><feColorMatrix values="0 0 0 0 1 0 0 0 0 1 0 0 0 0 1 0 0 0 1 0" color-interpolation-filters="sRGB"/></filter><clipPath id="6f50337b87"><path d="M 393 198 L 720.484375 198 L 720.484375 225 L 393 225 Z M 393 198 " clip-rule="nonzero"/></clipPath><mask id="364134f953"><g filter="url(#975e89903d)"><rect x="-144" width="1728" fill="#000000" y="-22.5" height="270" fill-opacity="0.9"/></g></mask><clipPath id="45fd32d97e"><path d="M 1 0 L 327.484375 0 L 327.484375 27 L 1 27 Z M 1 0 " clip-rule="nonzero"/></clipPath><clipPath id="55f3784584"><rect x="0" width="328" y="0" height="27"/></clipPath><clipPath id="f5f7aa921f"><path d="M 391.984375 188 L 720.484375 188 L 720.484375 225 L 391.984375 225 Z M 391.984375 188 " clip-rule="nonzero"/></clipPath><mask id="534eb72101"><g filter="url(#975e89903d)"><rect x="-144" width="1728" fill="#000000" y="-22.5" height="270" fill-opacity="0.9"/></g></mask><clipPath id="9bd0301a35"><path d="M 0.984375 0.160156 L 329.484375 0.160156 L 329.484375 37 L 0.984375 37 Z M 0.984375 0.160156 " clip-rule="nonzero"/></clipPath><clipPath id="398307bc5e"><rect x="0" width="330" y="0" height="37"/></clipPath><clipPath id="21b21fdacc"><path d="M 391.984375 181 L 720.484375 181 L 720.484375 225 L 391.984375 225 Z M 391.984375 181 " clip-rule="nonzero"/></clipPath><mask id="54868624a2"><g filter="url(#975e89903d)"><rect x="-144" width="1728" fill="#000000" y="-22.5" height="270" fill-opacity="0.54"/></g></mask><clipPath id="9db4253b1e"><path d="M 0.984375 0.921875 L 329.484375 0.921875 L 329.484375 44 L 0.984375 44 Z M 0.984375 0.921875 " clip-rule="nonzero"/></clipPath><clipPath id="de6d55a810"><rect x="0" width="330" y="0" height="44"/></clipPath><clipPath id="f7f3ab6393"><path d="M 391.984375 188 L 720.484375 188 L 720.484375 225 L 391.984375 225 Z M 391.984375 188 " clip-rule="nonzero"/></clipPath><mask id="532167f63e"><g filter="url(#975e89903d)"><rect x="-144" width="1728" fill="#000000" y="-22.5" height="270" fill-opacity="0.9"/></g></mask><clipPath id="2010ffc23d"><path d="M 0.984375 0.160156 L 329.484375 0.160156 L 329.484375 37 L 0.984375 37 Z M 0.984375 0.160156 " clip-rule="nonzero"/></clipPath><clipPath id="d6ff97348e"><rect x="0" width="330" y="0" height="37"/></clipPath><clipPath id="284bbef461"><path d="M 719.25 181 L 1047.75 181 L 1047.75 225 L 719.25 225 Z M 719.25 181 " clip-rule="nonzero"/></clipPath><clipPath id="6ca0109430"><path d="M 0.507812 17 L 328 17 L 328 44 L 0.507812 44 Z M 0.507812 17 " clip-rule="nonzero"/></clipPath><mask id="d994fe0137"><g filter="url(#975e89903d)"><rect x="-1035.8" width="2073.6" fill="#000000" y="-230.5" height="324" fill-opacity="0.9"/></g></mask><clipPath id="346de84452"><path d="M 0.507812 0 L 327 0 L 327 27 L 0.507812 27 Z M 0.507812 0 " clip-rule="nonzero"/></clipPath><clipPath id="32b6f2a6ae"><rect x="0" width="328" y="0" height="27"/></clipPath><clipPath id="dc097c29f1"><path d="M 0.507812 7 L 328.75 7 L 328.75 44 L 0.507812 44 Z M 0.507812 7 " clip-rule="nonzero"/></clipPath><mask id="ae63ac0345"><g filter="url(#975e89903d)"><rect x="-1035.8" width="2073.6" fill="#000000" y="-230.5" height="324" fill-opacity="0.9"/></g></mask><clipPath id="37e8189073"><path d="M 0.507812 0.160156 L 328.75 0.160156 L 328.75 37 L 0.507812 37 Z M 0.507812 0.160156 " clip-rule="nonzero"/></clipPath><clipPath id="c01e8f975d"><rect x="0" width="329" y="0" height="37"/></clipPath><clipPath id="35deaf239b"><path d="M 0.507812 0.921875 L 328.75 0.921875 L 328.75 44 L 0.507812 44 Z M 0.507812 0.921875 " clip-rule="nonzero"/></clipPath><mask id="76f73ae02c"><g filter="url(#975e89903d)"><rect x="-1035.8" width="2073.6" fill="#000000" y="-230.5" height="324" fill-opacity="0.54"/></g></mask><clipPath id="6497ddb9d7"><path d="M 0.507812 0.921875 L 328.75 0.921875 L 328.75 44 L 0.507812 44 Z M 0.507812 0.921875 " clip-rule="nonzero"/></clipPath><clipPath id="830ef795f1"><rect x="0" width="329" y="0" height="44"/></clipPath><clipPath id="79b6230a9f"><path d="M 0.507812 7 L 328.75 7 L 328.75 44 L 0.507812 44 Z M 0.507812 7 " clip-rule="nonzero"/></clipPath><mask id="a2892871a6"><g filter="url(#975e89903d)"><rect x="-1035.8" width="2073.6" fill="#000000" y="-230.5" height="324" fill-opacity="0.9"/></g></mask><clipPath id="cbf28408f0"><path d="M 0.507812 0.160156 L 328.75 0.160156 L 328.75 37 L 0.507812 37 Z M 0.507812 0.160156 " clip-rule="nonzero"/></clipPath><clipPath id="1c1a00dd97"><rect x="0" width="329" y="0" height="37"/></clipPath><clipPath id="8285108481"><rect x="0" width="329" y="0" height="44"/></clipPath><clipPath id="83dbe41498"><path d="M 0 198 L 64.449219 198 L 64.449219 225 L 0 225 Z M 0 198 " clip-rule="nonzero"/></clipPath><mask id="113c3b7c55"><g filter="url(#975e89903d)"><rect x="-144" width="1728" fill="#000000" y="-22.5" height="270" fill-opacity="0.9"/></g></mask><clipPath id="ca0a01b3c3"><path d="M 0 0 L 64.449219 0 L 64.449219 27 L 0 27 Z M 0 0 " clip-rule="nonzero"/></clipPath><clipPath id="958a8bce1e"><rect x="0" width="65" y="0" height="27"/></clipPath><clipPath id="abb11f3241"><path d="M 0 188 L 64.449219 188 L 64.449219 225 L 0 225 Z M 0 188 " clip-rule="nonzero"/></clipPath><mask id="73409489b6"><g filter="url(#975e89903d)"><rect x="-144" width="1728" fill="#000000" y="-22.5" height="270" fill-opacity="0.9"/></g></mask><clipPath id="ae525ce5b9"><path d="M 0 0.160156 L 64.449219 0.160156 L 64.449219 37 L 0 37 Z M 0 0.160156 " clip-rule="nonzero"/></clipPath><clipPath id="7f5d07be67"><rect x="0" width="65" y="0" height="37"/></clipPath><clipPath id="28fa117806"><path d="M 0 181 L 64.449219 181 L 64.449219 225 L 0 225 Z M 0 181 " clip-rule="nonzero"/></clipPath><mask id="50e704e36f"><g filter="url(#975e89903d)"><rect x="-144" width="1728" fill="#000000" y="-22.5" height="270" fill-opacity="0.54"/></g></mask><clipPath id="f177ce124c"><path d="M 0 0.921875 L 64.449219 0.921875 L 64.449219 44 L 0 44 Z M 0 0.921875 " clip-rule="nonzero"/></clipPath><clipPath id="73597529b7"><rect x="0" width="65" y="0" height="44"/></clipPath><clipPath id="d363049176"><path d="M 0 188 L 64.449219 188 L 64.449219 225 L 0 225 Z M 0 188 " clip-rule="nonzero"/></clipPath><mask id="071b5c94ac"><g filter="url(#975e89903d)"><rect x="-144" width="1728" fill="#000000" y="-22.5" height="270" fill-opacity="0.9"/></g></mask><clipPath id="2b9dc34201"><path d="M 0 0.160156 L 64.449219 0.160156 L 64.449219 37 L 0 37 Z M 0 0.160156 " clip-rule="nonzero"/></clipPath><clipPath id="52d06d6aa8"><rect x="0" width="65" y="0" height="37"/></clipPath><clipPath id="eb3ef187c8"><path d="M 63.964844 181 L 392.464844 181 L 392.464844 225 L 63.964844 225 Z M 63.964844 181 " clip-rule="nonzero"/></clipPath><clipPath id="9055967071"><path d="M 1.222656 17 L 328 17 L 328 44 L 1.222656 44 Z M 1.222656 17 " clip-rule="nonzero"/></clipPath><mask id="bad7601f26"><g filter="url(#975e89903d)"><rect x="-379.8" width="2073.6" fill="#000000" y="-230.5" height="324" fill-opacity="0.9"/></g></mask><clipPath id="19661cb7a1"><path d="M 0.222656 0 L 326.71875 0 L 326.71875 27 L 0.222656 27 Z M 0.222656 0 " clip-rule="nonzero"/></clipPath><clipPath id="644fdf1373"><rect x="0" width="327" y="0" height="27"/></clipPath><clipPath id="c298f4f5d5"><path d="M 1.222656 7 L 329.464844 7 L 329.464844 44 L 1.222656 44 Z M 1.222656 7 " clip-rule="nonzero"/></clipPath><mask id="efe6df0eb7"><g filter="url(#975e89903d)"><rect x="-379.8" width="2073.6" fill="#000000" y="-230.5" height="324" fill-opacity="0.9"/></g></mask><clipPath id="721180098e"><path d="M 0.222656 0.160156 L 328.464844 0.160156 L 328.464844 37 L 0.222656 37 Z M 0.222656 0.160156 " clip-rule="nonzero"/></clipPath><clipPath id="2130c34b21"><rect x="0" width="329" y="0" height="37"/></clipPath><clipPath id="58ab3c4313"><path d="M 1.222656 0.921875 L 329.464844 0.921875 L 329.464844 44 L 1.222656 44 Z M 1.222656 0.921875 " clip-rule="nonzero"/></clipPath><mask id="f8d2183aa3"><g filter="url(#975e89903d)"><rect x="-379.8" width="2073.6" fill="#000000" y="-230.5" height="324" fill-opacity="0.54"/></g></mask><clipPath id="f64b1968c8"><path d="M 0.222656 0.921875 L 328.464844 0.921875 L 328.464844 44 L 0.222656 44 Z M 0.222656 0.921875 " clip-rule="nonzero"/></clipPath><clipPath id="569a610524"><rect x="0" width="329" y="0" height="44"/></clipPath><clipPath id="8f375e3123"><path d="M 1.222656 7 L 329.464844 7 L 329.464844 44 L 1.222656 44 Z M 1.222656 7 " clip-rule="nonzero"/></clipPath><mask id="10ed14e644"><g filter="url(#975e89903d)"><rect x="-379.8" width="2073.6" fill="#000000" y="-230.5" height="324" fill-opacity="0.9"/></g></mask><clipPath id="bd77fd3525"><path d="M 0.222656 0.160156 L 328.464844 0.160156 L 328.464844 37 L 0.222656 37 Z M 0.222656 0.160156 " clip-rule="nonzero"/></clipPath><clipPath id="4084666112"><rect x="0" width="329" y="0" height="37"/></clipPath><clipPath id="63887f1f08"><rect x="0" width="330" y="0" height="44"/></clipPath><clipPath id="7b7c6b8c48"><path d="M 1049 198 L 1375.5 198 L 1375.5 225 L 1049 225 Z M 1049 198 " clip-rule="nonzero"/></clipPath><mask id="2349fba14a"><g filter="url(#975e89903d)"><rect x="-144" width="1728" fill="#000000" y="-22.5" height="270" fill-opacity="0.9"/></g></mask><clipPath id="c5b698b5c9"><path d="M 0.0390625 0 L 326.5 0 L 326.5 27 L 0.0390625 27 Z M 0.0390625 0 " clip-rule="nonzero"/></clipPath><clipPath id="72e0a3fc7a"><rect x="0" width="327" y="0" height="27"/></clipPath><clipPath id="3d56857979"><path d="M 1047 188 L 1375.5 188 L 1375.5 225 L 1047 225 Z M 1047 188 " clip-rule="nonzero"/></clipPath><mask id="96b36b9803"><g filter="url(#975e89903d)"><rect x="-144" width="1728" fill="#000000" y="-22.5" height="270" fill-opacity="0.9"/></g></mask><clipPath id="e22bedc64c"><path d="M 0 0.160156 L 328.5 0.160156 L 328.5 37 L 0 37 Z M 0 0.160156 " clip-rule="nonzero"/></clipPath><clipPath id="3b973a515f"><rect x="0" width="329" y="0" height="37"/></clipPath><clipPath id="0ca8b02cf0"><path d="M 1047 181 L 1375.5 181 L 1375.5 225 L 1047 225 Z M 1047 181 " clip-rule="nonzero"/></clipPath><mask id="c50ac7dd6e"><g filter="url(#975e89903d)"><rect x="-144" width="1728" fill="#000000" y="-22.5" height="270" fill-opacity="0.54"/></g></mask><clipPath id="6e52c7055b"><path d="M 0 0.921875 L 328.5 0.921875 L 328.5 44 L 0 44 Z M 0 0.921875 " clip-rule="nonzero"/></clipPath><clipPath id="e5d4af31eb"><rect x="0" width="329" y="0" height="44"/></clipPath><clipPath id="be877fb9f9"><path d="M 1047 188 L 1375.5 188 L 1375.5 225 L 1047 225 Z M 1047 188 " clip-rule="nonzero"/></clipPath><mask id="3e810378d4"><g filter="url(#975e89903d)"><rect x="-144" width="1728" fill="#000000" y="-22.5" height="270" fill-opacity="0.9"/></g></mask><clipPath id="ac1b63b595"><path d="M 0 0.160156 L 328.5 0.160156 L 328.5 37 L 0 37 Z M 0 0.160156 " clip-rule="nonzero"/></clipPath><clipPath id="5ceca453a1"><rect x="0" width="329" y="0" height="37"/></clipPath><clipPath id="06d0f6c113"><path d="M 1375.015625 181 L 1440 181 L 1440 225 L 1375.015625 225 Z M 1375.015625 181 " clip-rule="nonzero"/></clipPath><clipPath id="7621f9fd41"><path d="M 0.273438 17 L 65 17 L 65 44 L 0.273438 44 Z M 0.273438 17 " clip-rule="nonzero"/></clipPath><mask id="5584b5e012"><g filter="url(#975e89903d)"><rect x="-1691.8" width="2073.6" fill="#000000" y="-230.5" height="324" fill-opacity="0.9"/></g></mask><clipPath id="1ac0a2ec8e"><path d="M 0.273438 0 L 65 0 L 65 27 L 0.273438 27 Z M 0.273438 0 " clip-rule="nonzero"/></clipPath><clipPath id="b1c8f2ffab"><rect x="0" width="65" y="0" height="27"/></clipPath><clipPath id="4a22b1aeeb"><path d="M 0.273438 7 L 65 7 L 65 44 L 0.273438 44 Z M 0.273438 7 " clip-rule="nonzero"/></clipPath><mask id="a12597eec4"><g filter="url(#975e89903d)"><rect x="-1691.8" width="2073.6" fill="#000000" y="-230.5" height="324" fill-opacity="0.9"/></g></mask><clipPath id="6d0d1ec508"><path d="M 0.273438 0.160156 L 65 0.160156 L 65 37 L 0.273438 37 Z M 0.273438 0.160156 " clip-rule="nonzero"/></clipPath><clipPath id="6b16fffac5"><rect x="0" width="65" y="0" height="37"/></clipPath><clipPath id="417ca35506"><path d="M 0.273438 0.921875 L 65 0.921875 L 65 44 L 0.273438 44 Z M 0.273438 0.921875 " clip-rule="nonzero"/></clipPath><mask id="4499dee36c"><g filter="url(#975e89903d)"><rect x="-1691.8" width="2073.6" fill="#000000" y="-230.5" height="324" fill-opacity="0.54"/></g></mask><clipPath id="f124acbc6a"><path d="M 0.273438 0.921875 L 65 0.921875 L 65 44 L 0.273438 44 Z M 0.273438 0.921875 " clip-rule="nonzero"/></clipPath><clipPath id="b143b52bc8"><rect x="0" width="65" y="0" height="44"/></clipPath><clipPath id="ce4e3ff223"><path d="M 0.273438 7 L 65 7 L 65 44 L 0.273438 44 Z M 0.273438 7 " clip-rule="nonzero"/></clipPath><mask id="d875cda0f6"><g filter="url(#975e89903d)"><rect x="-1691.8" width="2073.6" fill="#000000" y="-230.5" height="324" fill-opacity="0.9"/></g></mask><clipPath id="725f413e26"><path d="M 0.273438 0.160156 L 65 0.160156 L 65 37 L 0.273438 37 Z M 0.273438 0.160156 " clip-rule="nonzero"/></clipPath><clipPath id="51ae2e4477"><rect x="0" width="65" y="0" height="37"/></clipPath><clipPath id="17a6db3814"><rect x="0" width="65" y="0" height="44"/></clipPath><clipPath id="57e75709a0"><path d="M 75.964844 193 L 404.464844 193 L 404.464844 225 L 75.964844 225 Z M 75.964844 193 " clip-rule="nonzero"/></clipPath><clipPath id="e9cd13dc43"><path d="M 1.222656 17 L 328 17 L 328 32 L 1.222656 32 Z M 1.222656 17 " clip-rule="nonzero"/></clipPath><mask id="343b3ff31e"><g filter="url(#975e89903d)"><rect x="-391.8" width="2073.6" fill="#000000" y="-242.5" height="324" fill-opacity="0.9"/></g></mask><clipPath id="68ce536c6f"><path d="M 0.222656 0 L 326.71875 0 L 326.71875 15 L 0.222656 15 Z M 0.222656 0 " clip-rule="nonzero"/></clipPath><clipPath id="b76a8278e4"><rect x="0" width="327" y="0" height="15"/></clipPath><clipPath id="cf347d665d"><path d="M 1.222656 7 L 329.464844 7 L 329.464844 32 L 1.222656 32 Z M 1.222656 7 " clip-rule="nonzero"/></clipPath><mask id="94618869a6"><g filter="url(#975e89903d)"><rect x="-391.8" width="2073.6" fill="#000000" y="-242.5" height="324" fill-opacity="0.9"/></g></mask><clipPath id="24a038ad18"><path d="M 0.222656 0.160156 L 328.464844 0.160156 L 328.464844 25 L 0.222656 25 Z M 0.222656 0.160156 " clip-rule="nonzero"/></clipPath><clipPath id="cb28a563dc"><rect x="0" width="329" y="0" height="25"/></clipPath><clipPath id="3b0da0c863"><path d="M 1.222656 0.921875 L 329.464844 0.921875 L 329.464844 32 L 1.222656 32 Z M 1.222656 0.921875 " clip-rule="nonzero"/></clipPath><mask id="fa2e50e23e"><g filter="url(#975e89903d)"><rect x="-391.8" width="2073.6" fill="#000000" y="-242.5" height="324" fill-opacity="0.54"/></g></mask><clipPath id="870743ba65"><path d="M 0.222656 0.921875 L 328.464844 0.921875 L 328.464844 32 L 0.222656 32 Z M 0.222656 0.921875 " clip-rule="nonzero"/></clipPath><clipPath id="39a5f6521d"><rect x="0" width="329" y="0" height="32"/></clipPath><clipPath id="04ea5e59c0"><path d="M 1.222656 7 L 329.464844 7 L 329.464844 32 L 1.222656 32 Z M 1.222656 7 " clip-rule="nonzero"/></clipPath><mask id="1ca7c81871"><g filter="url(#975e89903d)"><rect x="-391.8" width="2073.6" fill="#000000" y="-242.5" height="324" fill-opacity="0.9"/></g></mask><clipPath id="5513caa643"><path d="M 0.222656 0.160156 L 328.464844 0.160156 L 328.464844 25 L 0.222656 25 Z M 0.222656 0.160156 " clip-rule="nonzero"/></clipPath><clipPath id="5fe2ba7279"><rect x="0" width="329" y="0" height="25"/></clipPath><clipPath id="962322caf1"><rect x="0" width="330" y="0" height="32"/></clipPath></defs><g clip-path="url(#6f50337b87)"><g mask="url(#364134f953)"><g transform="matrix(1, 0, 0, 1, 393, 198)"><g clip-path="url(#55f3784584)"><g clip-path="url(#45fd32d97e)"><path fill="#000000" d="M 1.160156 60.179688 C 57.785156 10.996094 102.726562 2.0625 133.757812 3.371094 C 179.128906 5.28125 210.414062 29.742188 267.316406 21.042969 C 293.875 16.984375 314.617188 7.441406 327.742188 0.214844 L 327.742188 39.347656 C 315.105469 45.878906 295.105469 54.285156 269.878906 56.3125 C 219.652344 60.347656 202.738281 34.746094 135.636719 29.882812 C 96.433594 27.039062 69.066406 33.371094 60.394531 35.5625 C 34.554688 42.082031 14.511719 52.207031 1.160156 60.179688 Z M 1.160156 60.179688 " fill-opacity="1" fill-rule="nonzero"/></g></g></g></g></g><g clip-path="url(#f5f7aa921f)"><g mask="url(#534eb72101)"><g transform="matrix(1, 0, 0, 1, 391, 188)"><g clip-path="url(#398307bc5e)"><g clip-path="url(#9bd0301a35)"><path fill="#000000" d="M 329.742188 0.371094 C 272.738281 49.554688 227.5 58.488281 196.261719 57.179688 C 150.585938 55.269531 119.09375 30.808594 61.8125 39.507812 C 35.074219 43.566406 14.195312 53.109375 0.984375 60.335938 L 0.984375 21.199219 C 13.703125 14.671875 33.835938 6.265625 59.230469 4.238281 C 109.789062 0.203125 126.820312 25.800781 194.367188 30.667969 C 233.835938 33.511719 261.382812 27.179688 270.113281 24.988281 C 296.125 18.46875 316.300781 8.34375 329.742188 0.371094 Z M 329.742188 0.371094 " fill-opacity="1" fill-rule="nonzero"/></g></g></g></g></g><g clip-path="url(#21b21fdacc)"><g mask="url(#54868624a2)"><g transform="matrix(1, 0, 0, 1, 391, 181)"><g clip-path="url(#de6d55a810)"><g clip-path="url(#9db4253b1e)"><path fill="#000000" d="M 0.984375 79.242188 L 0.984375 44.007812 C 18.574219 31.53125 45.636719 15.914062 81.441406 7.398438 C 93.46875 4.535156 117.542969 -0.988281 148.308594 1.671875 C 184.605469 4.804688 197.0625 16.472656 227.882812 23.808594 C 250.101562 29.097656 283.925781 32.628906 329.742188 20.652344 C 316.527344 27.878906 295.652344 37.421875 268.910156 41.484375 C 211.632812 50.179688 180.136719 25.71875 134.464844 23.808594 C 103.222656 22.503906 57.984375 30.058594 0.984375 79.242188 Z M 0.984375 79.242188 " fill-opacity="1" fill-rule="nonzero"/></g></g></g></g></g><g clip-path="url(#f7f3ab6393)"><g mask="url(#532167f63e)"><g transform="matrix(1, 0, 0, 1, 391, 188)"><g clip-path="url(#d6ff97348e)"><g clip-path="url(#2010ffc23d)"><path fill="#000000" d="M 329.742188 0.371094 L 329.742188 36.980469 C 312.148438 49.457031 285.085938 65.074219 249.28125 73.59375 C 237.257812 76.453125 213.179688 81.976562 182.417969 79.320312 C 146.117188 76.183594 133.660156 64.515625 102.839844 57.179688 C 80.621094 51.890625 46.796875 48.359375 0.984375 60.335938 C 14.195312 53.109375 35.074219 43.566406 61.8125 39.507812 C 119.09375 30.808594 150.585938 55.269531 196.261719 57.179688 C 227.5 58.488281 272.738281 49.554688 329.742188 0.371094 Z M 329.742188 0.371094 " fill-opacity="1" fill-rule="nonzero"/></g></g></g></g></g><g clip-path="url(#284bbef461)"><g transform="matrix(1, 0, 0, 1, 719, 181)"><g clip-path="url(#8285108481)"><g clip-path="url(#6ca0109430)"><g mask="url(#d994fe0137)"><g transform="matrix(1, 0, 0, 1, 0, 17)"><g clip-path="url(#32b6f2a6ae)"><g clip-path="url(#346de84452)"><path fill="#000000" d="M 326.828125 60.179688 C 270.203125 10.996094 225.265625 2.0625 194.234375 3.371094 C 148.863281 5.28125 117.578125 29.742188 60.675781 21.042969 C 34.113281 16.984375 13.375 7.441406 0.25 0.214844 L 0.25 39.347656 C 12.882812 45.878906 32.886719 54.285156 58.113281 56.3125 C 108.335938 60.347656 125.253906 34.746094 192.351562 29.882812 C 231.558594 27.039062 258.921875 33.371094 267.597656 35.5625 C 293.433594 42.082031 313.476562 52.207031 326.828125 60.179688 Z M 326.828125 60.179688 " fill-opacity="1" fill-rule="nonzero"/></g></g></g></g></g><g clip-path="url(#dc097c29f1)"><g mask="url(#ae63ac0345)"><g transform="matrix(1, 0, 0, 1, 0, 7)"><g clip-path="url(#c01e8f975d)"><g clip-path="url(#37e8189073)"><path fill="#000000" d="M 0.25 0.371094 C 57.253906 49.554688 102.492188 58.488281 133.730469 57.179688 C 179.40625 55.269531 210.898438 30.808594 268.179688 39.507812 C 294.917969 43.566406 315.796875 53.109375 329.007812 60.335938 L 329.007812 21.199219 C 316.289062 14.671875 296.152344 6.265625 270.757812 4.238281 C 220.199219 0.203125 203.171875 25.800781 135.625 30.667969 C 96.15625 33.511719 68.609375 27.179688 59.878906 24.988281 C 33.867188 18.46875 13.691406 8.34375 0.25 0.371094 Z M 0.25 0.371094 " fill-opacity="1" fill-rule="nonzero"/></g></g></g></g></g><g clip-path="url(#35deaf239b)"><g mask="url(#76f73ae02c)"><g><g clip-path="url(#830ef795f1)"><g clip-path="url(#6497ddb9d7)"><path fill="#000000" d="M 329.007812 79.242188 L 329.007812 44.007812 C 311.414062 31.53125 284.355469 15.914062 248.550781 7.398438 C 236.523438 4.535156 212.449219 -0.988281 181.683594 1.671875 C 145.382812 4.804688 132.925781 16.472656 102.109375 23.808594 C 79.890625 29.097656 46.066406 32.628906 0.25 20.652344 C 13.460938 27.878906 34.339844 37.421875 61.078125 41.484375 C 118.359375 50.179688 149.851562 25.71875 195.527344 23.808594 C 226.765625 22.503906 272.003906 30.058594 329.007812 79.242188 Z M 329.007812 79.242188 " fill-opacity="1" fill-rule="nonzero"/></g></g></g></g></g><g clip-path="url(#79b6230a9f)"><g mask="url(#a2892871a6)"><g transform="matrix(1, 0, 0, 1, 0, 7)"><g clip-path="url(#1c1a00dd97)"><g clip-path="url(#cbf28408f0)"><path fill="#000000" d="M 0.25 0.371094 L 0.25 36.980469 C 17.84375 49.457031 44.902344 65.074219 80.707031 73.59375 C 92.734375 76.453125 116.808594 81.976562 147.574219 79.320312 C 183.875 76.183594 196.332031 64.515625 227.148438 57.179688 C 249.367188 51.890625 283.191406 48.359375 329.007812 60.335938 C 315.796875 53.109375 294.917969 43.566406 268.179688 39.507812 C 210.898438 30.808594 179.40625 55.269531 133.730469 57.179688 C 102.492188 58.488281 57.253906 49.554688 0.25 0.371094 Z M 0.25 0.371094 " fill-opacity="1" fill-rule="nonzero"/></g></g></g></g></g></g></g></g><g clip-path="url(#83dbe41498)"><g mask="url(#113c3b7c55)"><g transform="matrix(1, 0, 0, 1, 0, 198)"><g clip-path="url(#958a8bce1e)"><g clip-path="url(#ca0a01b3c3)"><path fill="#000000" d="M -261.871094 60.179688 C -205.25 10.996094 -160.308594 2.0625 -129.277344 3.371094 C -83.90625 5.28125 -52.621094 29.742188 4.28125 21.042969 C 30.84375 16.984375 51.582031 7.441406 64.707031 0.214844 L 64.707031 39.347656 C 52.074219 45.878906 32.070312 54.285156 6.84375 56.3125 C -43.378906 60.347656 -60.296875 34.746094 -127.398438 29.882812 C -166.601562 27.039062 -193.964844 33.371094 -202.640625 35.5625 C -228.480469 42.082031 -248.519531 52.207031 -261.871094 60.179688 Z M -261.871094 60.179688 " fill-opacity="1" fill-rule="nonzero"/></g></g></g></g></g><g clip-path="url(#abb11f3241)"><g mask="url(#73409489b6)"><g transform="matrix(1, 0, 0, 1, 0, 188)"><g clip-path="url(#7f5d07be67)"><g clip-path="url(#ae525ce5b9)"><path fill="#000000" d="M 64.707031 0.371094 C 7.703125 49.554688 -37.535156 58.488281 -68.773438 57.179688 C -114.449219 55.269531 -145.941406 30.808594 -203.222656 39.507812 C -229.960938 43.566406 -250.839844 53.109375 -264.050781 60.335938 L -264.050781 21.199219 C -251.332031 14.671875 -231.195312 6.265625 -205.800781 4.238281 C -155.242188 0.203125 -138.214844 25.800781 -70.667969 30.667969 C -31.199219 33.511719 -3.652344 27.179688 5.078125 24.988281 C 31.089844 18.46875 51.265625 8.34375 64.707031 0.371094 Z M 64.707031 0.371094 " fill-opacity="1" fill-rule="nonzero"/></g></g></g></g></g><g clip-path="url(#28fa117806)"><g mask="url(#50e704e36f)"><g transform="matrix(1, 0, 0, 1, 0, 181)"><g clip-path="url(#73597529b7)"><g clip-path="url(#f177ce124c)"><path fill="#000000" d="M -264.050781 79.242188 L -264.050781 44.007812 C -246.457031 31.53125 -219.398438 15.914062 -183.59375 7.398438 C -171.566406 4.535156 -147.492188 -0.988281 -116.726562 1.671875 C -80.425781 4.804688 -67.96875 16.472656 -37.152344 23.808594 C -14.933594 29.097656 18.890625 32.628906 64.707031 20.652344 C 51.492188 27.878906 30.617188 37.421875 3.878906 41.484375 C -53.402344 50.179688 -84.898438 25.71875 -130.570312 23.808594 C -161.808594 22.503906 -207.050781 30.058594 -264.050781 79.242188 Z M -264.050781 79.242188 " fill-opacity="1" fill-rule="nonzero"/></g></g></g></g></g><g clip-path="url(#d363049176)"><g mask="url(#071b5c94ac)"><g transform="matrix(1, 0, 0, 1, 0, 188)"><g clip-path="url(#52d06d6aa8)"><g clip-path="url(#2b9dc34201)"><path fill="#000000" d="M 64.707031 0.371094 L 64.707031 36.980469 C 47.113281 49.457031 20.050781 65.074219 -15.75 73.59375 C -27.777344 76.453125 -51.851562 81.976562 -82.617188 79.320312 C -118.917969 76.183594 -131.375 64.515625 -162.195312 57.179688 C -184.410156 51.890625 -218.234375 48.359375 -264.050781 60.335938 C -250.839844 53.109375 -229.960938 43.566406 -203.222656 39.507812 C -145.941406 30.808594 -114.449219 55.269531 -68.773438 57.179688 C -37.535156 58.488281 7.703125 49.554688 64.707031 0.371094 Z M 64.707031 0.371094 " fill-opacity="1" fill-rule="nonzero"/></g></g></g></g></g><g clip-path="url(#eb3ef187c8)"><g transform="matrix(1, 0, 0, 1, 63, 181)"><g clip-path="url(#63887f1f08)"><g clip-path="url(#9055967071)"><g mask="url(#bad7601f26)"><g transform="matrix(1, 0, 0, 1, 1, 17)"><g clip-path="url(#644fdf1373)"><g clip-path="url(#19661cb7a1)"><path fill="#000000" d="M 326.546875 60.179688 C 269.921875 10.996094 224.980469 2.0625 193.949219 3.371094 C 148.578125 5.28125 117.292969 29.742188 60.390625 21.042969 C 33.828125 16.984375 13.089844 7.441406 -0.0351562 0.214844 L -0.0351562 39.347656 C 12.601562 45.878906 32.601562 54.285156 57.828125 56.3125 C 108.050781 60.347656 124.96875 34.746094 192.070312 29.882812 C 231.273438 27.039062 258.640625 33.371094 267.3125 35.5625 C 293.152344 42.082031 313.191406 52.207031 326.546875 60.179688 Z M 326.546875 60.179688 " fill-opacity="1" fill-rule="nonzero"/></g></g></g></g></g><g clip-path="url(#c298f4f5d5)"><g mask="url(#efe6df0eb7)"><g transform="matrix(1, 0, 0, 1, 1, 7)"><g clip-path="url(#2130c34b21)"><g clip-path="url(#721180098e)"><path fill="#000000" d="M -0.0351562 0.371094 C 56.96875 49.554688 102.207031 58.488281 133.445312 57.179688 C 179.121094 55.269531 210.613281 30.808594 267.894531 39.507812 C 294.632812 43.566406 315.511719 53.109375 328.722656 60.335938 L 328.722656 21.199219 C 316.003906 14.671875 295.867188 6.265625 270.472656 4.238281 C 219.914062 0.203125 202.886719 25.800781 135.339844 30.667969 C 95.871094 33.511719 68.324219 27.179688 59.59375 24.988281 C 33.582031 18.46875 13.40625 8.34375 -0.0351562 0.371094 Z M -0.0351562 0.371094 " fill-opacity="1" fill-rule="nonzero"/></g></g></g></g></g><g clip-path="url(#58ab3c4313)"><g mask="url(#f8d2183aa3)"><g transform="matrix(1, 0, 0, 1, 1, 0)"><g clip-path="url(#569a610524)"><g clip-path="url(#f64b1968c8)"><path fill="#000000" d="M 328.722656 79.242188 L 328.722656 44.007812 C 311.128906 31.53125 284.070312 15.914062 248.265625 7.398438 C 236.238281 4.535156 212.164062 -0.988281 181.398438 1.671875 C 145.097656 4.804688 132.640625 16.472656 101.824219 23.808594 C 79.605469 29.097656 45.78125 32.628906 -0.0351562 20.652344 C 13.179688 27.878906 34.054688 37.421875 60.792969 41.484375 C 118.074219 50.179688 149.570312 25.71875 195.242188 23.808594 C 226.480469 22.503906 271.722656 30.058594 328.722656 79.242188 Z M 328.722656 79.242188 " fill-opacity="1" fill-rule="nonzero"/></g></g></g></g></g><g clip-path="url(#8f375e3123)"><g mask="url(#10ed14e644)"><g transform="matrix(1, 0, 0, 1, 1, 7)"><g clip-path="url(#4084666112)"><g clip-path="url(#bd77fd3525)"><path fill="#000000" d="M -0.0351562 0.371094 L -0.0351562 36.980469 C 17.558594 49.457031 44.621094 65.074219 80.421875 73.59375 C 92.449219 76.453125 116.527344 81.976562 147.289062 79.320312 C 183.589844 76.183594 196.046875 64.515625 226.867188 57.179688 C 249.085938 51.890625 282.90625 48.359375 328.722656 60.335938 C 315.511719 53.109375 294.632812 43.566406 267.894531 39.507812 C 210.613281 30.808594 179.121094 55.269531 133.445312 57.179688 C 102.207031 58.488281 56.96875 49.554688 -0.0351562 0.371094 Z M -0.0351562 0.371094 " fill-opacity="1" fill-rule="nonzero"/></g></g></g></g></g></g></g></g><g clip-path="url(#7b7c6b8c48)"><g mask="url(#2349fba14a)"><g transform="matrix(1, 0, 0, 1, 1049, 198)"><g clip-path="url(#72e0a3fc7a)"><g clip-path="url(#c5b698b5c9)"><path fill="#000000" d="M 0.179688 60.179688 C 56.800781 10.996094 101.742188 2.0625 132.773438 3.371094 C 178.144531 5.28125 209.429688 29.742188 266.332031 21.042969 C 292.894531 16.984375 313.632812 7.441406 326.757812 0.214844 L 326.757812 39.347656 C 314.125 45.878906 294.121094 54.285156 268.894531 56.3125 C 218.671875 60.347656 201.753906 34.746094 134.65625 29.882812 C 95.449219 27.039062 68.085938 33.371094 59.410156 35.5625 C 33.574219 42.082031 13.53125 52.207031 0.179688 60.179688 Z M 0.179688 60.179688 " fill-opacity="1" fill-rule="nonzero"/></g></g></g></g></g><g clip-path="url(#3d56857979)"><g mask="url(#96b36b9803)"><g transform="matrix(1, 0, 0, 1, 1047, 188)"><g clip-path="url(#3b973a515f)"><g clip-path="url(#e22bedc64c)"><path fill="#000000" d="M 328.757812 0.371094 C 271.753906 49.554688 226.515625 58.488281 195.277344 57.179688 C 149.601562 55.269531 118.109375 30.808594 60.828125 39.507812 C 34.089844 43.566406 13.210938 53.109375 0 60.335938 L 0 21.199219 C 12.71875 14.671875 32.855469 6.265625 58.25 4.238281 C 108.808594 0.203125 125.835938 25.800781 193.382812 30.667969 C 232.851562 33.511719 260.398438 27.179688 269.128906 24.988281 C 295.140625 18.46875 315.316406 8.34375 328.757812 0.371094 Z M 328.757812 0.371094 " fill-opacity="1" fill-rule="nonzero"/></g></g></g></g></g><g clip-path="url(#0ca8b02cf0)"><g mask="url(#c50ac7dd6e)"><g transform="matrix(1, 0, 0, 1, 1047, 181)"><g clip-path="url(#e5d4af31eb)"><g clip-path="url(#6e52c7055b)"><path fill="#000000" d="M 0 79.242188 L 0 44.007812 C 17.59375 31.53125 44.652344 15.914062 80.457031 7.398438 C 92.484375 4.535156 116.558594 -0.988281 147.324219 1.671875 C 183.625 4.804688 196.082031 16.472656 226.898438 23.808594 C 249.117188 29.097656 282.941406 32.628906 328.757812 20.652344 C 315.546875 27.878906 294.667969 37.421875 267.929688 41.484375 C 210.648438 50.179688 179.15625 25.71875 133.480469 23.808594 C 102.242188 22.503906 57.003906 30.058594 0 79.242188 Z M 0 79.242188 " fill-opacity="1" fill-rule="nonzero"/></g></g></g></g></g><g clip-path="url(#be877fb9f9)"><g mask="url(#3e810378d4)"><g transform="matrix(1, 0, 0, 1, 1047, 188)"><g clip-path="url(#5ceca453a1)"><g clip-path="url(#ac1b63b595)"><path fill="#000000" d="M 328.757812 0.371094 L 328.757812 36.980469 C 311.164062 49.457031 284.105469 65.074219 248.300781 73.59375 C 236.273438 76.453125 212.199219 81.976562 181.433594 79.320312 C 145.132812 76.183594 132.675781 64.515625 101.859375 57.179688 C 79.640625 51.890625 45.816406 48.359375 0 60.335938 C 13.210938 53.109375 34.089844 43.566406 60.828125 39.507812 C 118.109375 30.808594 149.601562 55.269531 195.277344 57.179688 C 226.515625 58.488281 271.753906 49.554688 328.757812 0.371094 Z M 328.757812 0.371094 " fill-opacity="1" fill-rule="nonzero"/></g></g></g></g></g><g clip-path="url(#06d0f6c113)"><g transform="matrix(1, 0, 0, 1, 1375, 181)"><g clip-path="url(#17a6db3814)"><g clip-path="url(#7621f9fd41)"><g mask="url(#5584b5e012)"><g transform="matrix(1, 0, 0, 1, 0, 17)"><g clip-path="url(#b1c8f2ffab)"><g clip-path="url(#1ac0a2ec8e)"><path fill="#000000" d="M 326.597656 60.179688 C 269.972656 10.996094 225.03125 2.0625 194 3.371094 C 148.628906 5.28125 117.34375 29.742188 60.441406 21.042969 C 33.882812 16.984375 13.140625 7.441406 0.015625 0.214844 L 0.015625 39.347656 C 12.652344 45.878906 32.652344 54.285156 57.878906 56.3125 C 108.105469 60.347656 125.019531 34.746094 192.121094 29.882812 C 231.324219 27.039062 258.691406 33.371094 267.363281 35.5625 C 293.203125 42.082031 313.246094 52.207031 326.597656 60.179688 Z M 326.597656 60.179688 " fill-opacity="1" fill-rule="nonzero"/></g></g></g></g></g><g clip-path="url(#4a22b1aeeb)"><g mask="url(#a12597eec4)"><g transform="matrix(1, 0, 0, 1, 0, 7)"><g clip-path="url(#6b16fffac5)"><g clip-path="url(#6d0d1ec508)"><path fill="#000000" d="M 0.015625 0.371094 C 57.019531 49.554688 102.257812 58.488281 133.496094 57.179688 C 179.171875 55.269531 210.664062 30.808594 267.945312 39.507812 C 294.683594 43.566406 315.5625 53.109375 328.773438 60.335938 L 328.773438 21.199219 C 316.054688 14.671875 295.921875 6.265625 270.527344 4.238281 C 219.96875 0.203125 202.9375 25.800781 135.390625 30.667969 C 95.921875 33.511719 68.375 27.179688 59.644531 24.988281 C 33.632812 18.46875 13.457031 8.34375 0.015625 0.371094 Z M 0.015625 0.371094 " fill-opacity="1" fill-rule="nonzero"/></g></g></g></g></g><g clip-path="url(#417ca35506)"><g mask="url(#4499dee36c)"><g><g clip-path="url(#b143b52bc8)"><g clip-path="url(#f124acbc6a)"><path fill="#000000" d="M 328.773438 79.242188 L 328.773438 44.007812 C 311.183594 31.53125 284.121094 15.914062 248.316406 7.398438 C 236.289062 4.535156 212.214844 -0.988281 181.449219 1.671875 C 145.152344 4.804688 132.695312 16.472656 101.875 23.808594 C 79.65625 29.097656 45.832031 32.628906 0.015625 20.652344 C 13.230469 27.878906 34.105469 37.421875 60.847656 41.484375 C 118.125 50.179688 149.621094 25.71875 195.292969 23.808594 C 226.535156 22.503906 271.773438 30.058594 328.773438 79.242188 Z M 328.773438 79.242188 " fill-opacity="1" fill-rule="nonzero"/></g></g></g></g></g><g clip-path="url(#ce4e3ff223)"><g mask="url(#d875cda0f6)"><g transform="matrix(1, 0, 0, 1, 0, 7)"><g clip-path="url(#51ae2e4477)"><g clip-path="url(#725f413e26)"><path fill="#000000" d="M 0.015625 0.371094 L 0.015625 36.980469 C 17.609375 49.457031 44.671875 65.074219 80.476562 73.59375 C 92.5 76.453125 116.578125 81.976562 147.339844 79.320312 C 183.640625 76.183594 196.097656 64.515625 226.917969 57.179688 C 249.136719 51.890625 282.960938 48.359375 328.773438 60.335938 C 315.5625 53.109375 294.683594 43.566406 267.945312 39.507812 C 210.664062 30.808594 179.171875 55.269531 133.496094 57.179688 C 102.257812 58.488281 57.019531 49.554688 0.015625 0.371094 Z M 0.015625 0.371094 " fill-opacity="1" fill-rule="nonzero"/></g></g></g></g></g></g></g></g><g clip-path="url(#57e75709a0)"><g transform="matrix(1, 0, 0, 1, 75, 193)"><g clip-path="url(#962322caf1)"><g clip-path="url(#e9cd13dc43)"><g mask="url(#343b3ff31e)"><g transform="matrix(1, 0, 0, 1, 1, 17)"><g clip-path="url(#b76a8278e4)"><g clip-path="url(#68ce536c6f)"><path fill="#000000" d="M 326.546875 60.179688 C 269.921875 10.996094 224.980469 2.0625 193.949219 3.371094 C 148.578125 5.28125 117.292969 29.742188 60.390625 21.042969 C 33.828125 16.984375 13.089844 7.441406 -0.0351562 0.214844 L -0.0351562 39.347656 C 12.601562 45.878906 32.601562 54.285156 57.828125 56.3125 C 108.050781 60.347656 124.96875 34.746094 192.070312 29.882812 C 231.273438 27.039062 258.640625 33.371094 267.3125 35.5625 C 293.152344 42.082031 313.191406 52.207031 326.546875 60.179688 Z M 326.546875 60.179688 " fill-opacity="1" fill-rule="nonzero"/></g></g></g></g></g><g clip-path="url(#cf347d665d)"><g mask="url(#94618869a6)"><g transform="matrix(1, 0, 0, 1, 1, 7)"><g clip-path="url(#cb28a563dc)"><g clip-path="url(#24a038ad18)"><path fill="#000000" d="M -0.0351562 0.371094 C 56.96875 49.554688 102.207031 58.488281 133.445312 57.179688 C 179.121094 55.269531 210.613281 30.808594 267.894531 39.507812 C 294.632812 43.566406 315.511719 53.109375 328.722656 60.335938 L 328.722656 21.199219 C 316.003906 14.671875 295.867188 6.265625 270.472656 4.238281 C 219.914062 0.203125 202.886719 25.800781 135.339844 30.667969 C 95.871094 33.511719 68.324219 27.179688 59.59375 24.988281 C 33.582031 18.46875 13.40625 8.34375 -0.0351562 0.371094 Z M -0.0351562 0.371094 " fill-opacity="1" fill-rule="nonzero"/></g></g></g></g></g><g clip-path="url(#3b0da0c863)"><g mask="url(#fa2e50e23e)"><g transform="matrix(1, 0, 0, 1, 1, 0)"><g clip-path="url(#39a5f6521d)"><g clip-path="url(#870743ba65)"><path fill="#000000" d="M 328.722656 79.242188 L 328.722656 44.007812 C 311.128906 31.53125 284.070312 15.914062 248.265625 7.398438 C 236.238281 4.535156 212.164062 -0.988281 181.398438 1.671875 C 145.097656 4.804688 132.640625 16.472656 101.824219 23.808594 C 79.605469 29.097656 45.78125 32.628906 -0.0351562 20.652344 C 13.179688 27.878906 34.054688 37.421875 60.792969 41.484375 C 118.074219 50.179688 149.570312 25.71875 195.242188 23.808594 C 226.480469 22.503906 271.722656 30.058594 328.722656 79.242188 Z M 328.722656 79.242188 " fill-opacity="1" fill-rule="nonzero"/></g></g></g></g></g><g clip-path="url(#04ea5e59c0)"><g mask="url(#1ca7c81871)"><g transform="matrix(1, 0, 0, 1, 1, 7)"><g clip-path="url(#5fe2ba7279)"><g clip-path="url(#5513caa643)"><path fill="#000000" d="M -0.0351562 0.371094 L -0.0351562 36.980469 C 17.558594 49.457031 44.621094 65.074219 80.421875 73.59375 C 92.449219 76.453125 116.527344 81.976562 147.289062 79.320312 C 183.589844 76.183594 196.046875 64.515625 226.867188 57.179688 C 249.085938 51.890625 282.90625 48.359375 328.722656 60.335938 C 315.511719 53.109375 294.632812 43.566406 267.894531 39.507812 C 210.613281 30.808594 179.121094 55.269531 133.445312 57.179688 C 102.207031 58.488281 56.96875 49.554688 -0.0351562 0.371094 Z M -0.0351562 0.371094 " fill-opacity="1" fill-rule="nonzero"/></g></g></g></g></g></g></g></g></svg>